<?xml version="1.0" encoding="UTF-8" standalone="no"?>
<!-- Created with Inkscape (http://www.inkscape.org/) -->

<svg
   xmlns:dc="http://purl.org/dc/elements/1.1/"
   xmlns:cc="http://creativecommons.org/ns#"
   xmlns:rdf="http://www.w3.org/1999/02/22-rdf-syntax-ns#"
   xmlns:svg="http://www.w3.org/2000/svg"
   xmlns="http://www.w3.org/2000/svg"
   xmlns:sodipodi="http://sodipodi.sourceforge.net/DTD/sodipodi-0.dtd"
   xmlns:inkscape="http://www.inkscape.org/namespaces/inkscape"
   width="88.335556mm"
   height="70.837776mm"
   viewBox="0 0 313 250.99999"
   id="svg2"
   version="1.1"
   inkscape:version="0.92.3 (2405546, 2018-03-11)"
   sodipodi:docname="bob-tp.svg">
  <defs
     id="defs4" />
  <sodipodi:namedview
     id="base"
     pagecolor="#ffffff"
     bordercolor="#666666"
     borderopacity="1.0"
     inkscape:pageopacity="0.0"
     inkscape:pageshadow="2"
     inkscape:zoom="1.979899"
     inkscape:cx="130.85475"
     inkscape:cy="77.576708"
     inkscape:document-units="px"
     inkscape:current-layer="svg2"
     showgrid="false"
     fit-margin-top="0"
     fit-margin-left="0"
     fit-margin-right="0"
     fit-margin-bottom="0"
     inkscape:window-width="1853"
     inkscape:window-height="1025"
     inkscape:window-x="67"
     inkscape:window-y="27"
     inkscape:window-maximized="1" />
  <metadata
     id="metadata7">
    <rdf:RDF>
      <cc:Work
         rdf:about="">
        <dc:format>image/svg+xml</dc:format>
        <dc:type
           rdf:resource="http://purl.org/dc/dcmitype/StillImage" />
        <dc:title />
      </cc:Work>
    </rdf:RDF>
  </metadata>
  <g
     inkscape:label="Calque 1"
     inkscape:groupmode="layer"
     id="layer1"
     transform="matrix(1.0778037,0,0,1,-14.532879,-1.1479143)">
    <polygon
       transform="matrix(1.9511702,0,0,1.9511702,-1643.1909,-1205.0469)"
       id="polygon10"
       style="color:#000000;fill:#a7b6cd;fill-opacity:1;stroke:#000000;stroke-width:0.035cm;stroke-linecap:square;stroke-opacity:1"
       points="938.37581,688.17857 904.46371,691.60496 904.28523,699.70695 903.28571,743.89313 910.92486,743.89313 910.92486,703.98994 925.41782,702.99058 969.9319,702.99058 970.61014,744.32143 976.78571,744.14297 976.78571,715.12572 975.71481,691.92619 " />
    <polygon
       transform="matrix(1.9511702,0,0,1.9511702,-1643.1909,-1205.0469)"
       id="polygon14"
       style="color:#000000;fill:#d7dfeb;fill-opacity:1;stroke:#000000;stroke-width:0.035cm;stroke-linecap:square;stroke-opacity:1"
       points="909.03571,692.09633 914.35053,690.42192 918.02453,689.92317 921.6272,687.75 925.40821,691.02756 936.96526,697.61831 937.75,700.07648 931.04406,702.10714 " />
    <polygon
       transform="matrix(1.9511702,0,0,1.9511702,-1643.1909,-1205.0469)"
       id="polygon18"
       style="color:#000000;fill:#d5c06b;fill-opacity:1;stroke:#000000;stroke-width:0.035cm;stroke-linecap:square;stroke-opacity:1"
       points="995.32165,638.28489 995.75,638.71322 995.75,639.32003 995.32165,641.06906 993.89382,646.92297 992.78725,651.20632 990.53841,661.05803 989.00349,667.05471 984.82708,681.11838 980.97193,692.43356 980.18662,694.61093 979.68688,695.78885 979.36562,697.07385 978.83018,697.75205 978.18766,698.50164 977.50944,698.7515 976.153,699.10844 973.90416,699.25122 969.97762,699.25122 966.6936,699.60817 962.33871,700.17928 957.69826,700.96456 954.66411,701.46429 950.84466,701.46429 950.09505,700.96456 928.82034,688.04313 927.82086,687.18646 927.03555,686.36548 926.71429,685.33034 926.71429,684.15242 927.03555,683.15297 933.03245,667.23319 936.8519,657.20301 939.56478,649.84993 941.24248,645.35241 942.31336,642.49685 942.67032,641.67587 943.34854,640.99767 943.6698,640.64073 944.34802,640.42656 953.0935,638.78461 962.58858,637.28544 971.04849,636.78571 975.83173,636.78571 985.93365,637.28544 993.14421,637.5353 994.25078,637.71377 995.00039,637.96364 " />
    <polygon
       transform="matrix(1.9511702,0,0,1.9511702,-1643.1909,-1205.0469)"
       id="polygon22"
       style="color:#000000;fill:#ffffff;fill-opacity:1;stroke:#000000;stroke-width:0.035cm;stroke-linecap:square;stroke-opacity:1"
       points="954.7288,682.15027 953.37284,686.11168 952.58781,688.71693 951.76709,690.25153 951.05343,691.42925 950.51818,691.92888 950.08999,692.25008 949.44769,692.35714 948.76971,692.10732 947.59217,691.50062 946.23621,690.75117 945.16571,689.71621 943.7027,688.71693 942.45379,687.86041 930.89245,683.57781 930.53562,683.25661 930.42857,682.89973 930.46425,682.25734 930.71404,681.72201 939.67051,657.8822 942.70357,650.78022 945.30844,644.46338 945.62959,644.21356 946.16484,644.03512 947.02124,643.96374 958.72531,643.21429 970.1796,643.21429 970.85758,643.28566 971.00031,643.4641 971.35714,644.03512 970.42938,648.49616 968.68091,652.38619 965.64784,659.48817 959.76012,671.51515 " />
    <polyline
       transform="matrix(1.9511702,0,0,1.9511702,-1643.1909,-1205.0469)"
       id="polyline26"
       style="color:#000000;fill:#ffffff;fill-opacity:0;stroke:#000000;stroke-width:0.035cm;stroke-linecap:square;stroke-opacity:1"
       points="977.1428571428571,694.7857142857143 977.4275132275131,696.462005046584 977.7833333333333,697.6746409161491 978.6373015873015,698.8872767857143 979.9182539682539,699.6362577639752 981.5194444444444,700.2425756987578 982.7648148148148,701.3125485248447 983.7966931216931,702.52518439441 984.8641534391534,704.665130046584 985.2199735449735,706.4484180900622 984.9353174603174,707.8037170031056 983.7966931216931,709.0520186335405 982.8715608465608,710.2646545031056 982.1243386243386,711.4772903726708 981.6617724867724,713.0109180900622 981.3771164021164,714.7942061335405 981.8396825396825,716.3991653726708 982.6224867724867,717.5761354813665 984.0457671957672,718.93143439441 985.2199735449735,719.9300756987578 986.75,721.0357142857143" />
    <ellipse
       id="ellipse30"
       style="color:#000000;fill:#000000;fill-opacity:1;stroke:#000000;stroke-width:0.06829095cm;stroke-linecap:square;stroke-opacity:1"
       ry="0.90590042"
       rx="1.0104274"
       cy="149.69235"
       cx="262.99783" />
    <polygon
       transform="matrix(1.9511702,0,0,1.9511702,-1643.1909,-1205.0469)"
       id="polygon34"
       style="color:#000000;fill:#4d668d;fill-opacity:1;stroke:#000000;stroke-width:0.035cm;stroke-linecap:square;stroke-opacity:1"
       points="854.32034,683.49589 853.57093,684.78092 852.96426,686.45859 852.92857,688.31474 852.92857,691.24175 853.21406,694.5257 853.99916,697.63118 855.17682,701.45057 856.42584,704.52035 857.53212,706.62637 859.13801,708.83947 860.38703,710.37436 861.63606,712.12342 863.17058,713.90818 864.59803,714.97904 870.7361,714.33652 875.33965,712.98011 878.19456,713.72971 884.90361,713.97957 893.14718,712.98011 894.43189,715.40738 894.43189,732.96941 894.18208,734.64708 893.82522,735.71794 893.39698,736.7174 892.64757,737.57408 891.71972,738.32368 890.7205,738.82342 889.79265,739.07328 888.68637,739.25176 857.67487,739.25176 857.67487,742.53571 889.54285,742.39293 891.11305,742.28585 892.21933,742.10737 893.39698,741.85751 894.50326,741.46486 895.50248,740.67957 896.43033,739.50162 897.21543,738.32368 897.8221,737.21713 898.17896,735.78933 898.50014,734.32582 898.67857,732.64815 898.67857,707.1261 885.58165,700.41541 871.20002,676.96367 870.62904,676.53533 869.62982,676.14269 868.45217,675.85712 866.88196,675.82143 865.52588,675.85712 864.13411,676.39255 862.63528,676.96367 860.70821,677.99883 859.03095,678.92691 857.67487,679.85498 856.60427,680.78306 855.49799,681.9253 " />
    <g
       id="g891"
       transform="matrix(2.0812483,0,0,2.0812483,-92.28547,-488.53942)">
      <polygon
         points="893.94792,621.28557 898.12434,629.06898 898.4813,627.85505 899.05243,628.81905 899.23091,627.60512 898.37421,625.57001 898.51699,621.78542 899.98052,629.06898 900.73014,622.5352 900.73014,627.67653 901.47975,628.99757 902.69341,623.14216 905.4063,620.78571 903.62151,623.14216 902.55063,627.78364 902.97898,628.56913 904.83517,625.32009 903.44303,628.10498 903.44303,629.3189 907.36957,622.5352 907.44097,623.64201 905.62048,627.60512 905.62048,629.92587 906.2987,630.35431 907.1911,625.99846 909.04728,623.07075 907.44097,626.31979 907.79793,630.85416 908.8688,630.56853 910.72499,624.74883 909.36854,631.03268 912.4027,625.99846 914.9371,624.32038 912.83105,626.78394 911.4746,629.3189 913.83053,628.39061 910.90347,630.35431 910.36803,632.38942 911.33182,632.78216 914.25888,628.56913 917.68569,626.17698 913.08092,631.71105 915.32976,629.92587 927.1094,628.2835 914.68723,630.85416 913.40218,632.85357 914.68723,632.46083 918.32821,630.67564 915.40115,633.35342 913.15231,634.53165 913.15231,636.10261 913.83053,637.35224 915.11558,638.63757 916.57912,640.67269 917.93556,642.17224 919.292,643.81461 920.39858,645.38558 921.25528,646.77802 922.64742,648.95595 924.03956,651.49091 925.07474,653.77595 925.00335,654.16869 924.71778,654.70425 924.32513,655.09699 923.86108,655.27551 923.00438,655.45403 914.50875,654.70425 913.90192,656.27521 912.65257,661.9164 911.79587,665.87951 910.79638,669.16425 910.11816,669.41418 909.36854,669.5927 908.61893,669.73551 905.62048,669.66411 898.87395,667.05773 898.30282,668.12885 897.23194,672.12766 896.41093,675.19818 895.48284,679.41122 895.12588,681.94619 896.66081,683.80278 898.4813,686.01641 900.73014,688.97982 904.04986,689.69389 906.69135,690.30086 910.6179,690.87212 912.75965,691.19345 914.68723,691.37197 916.15077,691.55049 917.5786,691.55049 919.292,691.37197 921.57654,691.19345 924.14665,689.87241 924.89626,689.62249 925.57448,689.62249 926.18131,689.94382 926.93093,690.62219 927.1094,691.12204 927.28788,692.15745 927.43067,693.15715 928.25167,693.47849 929.53673,694.15686 930.39343,694.76382 931.5,695.58501 931.32152,696.19197 931.07165,696.90604 930.57191,697.4416 929.89368,698.01286 930.21495,698.51271 930.46482,699.19108 930.82178,700.22649 930.71469,700.90486 930.46482,701.79745 929.89368,702.29731 928.43015,703.04708 928.71572,704.33242 928.71572,704.93938 928.43015,705.33212 928.14459,705.76057 927.60915,705.90338 926.93093,705.83197 925.82435,705.43923 922.86159,704.40383 919.3634,703.04708 914.25888,701.79745 913.40218,701.79745 910.36803,700.97627 904.47821,699.54812 899.65926,698.94116 898.4813,699.04827 895.8755,699.19108 894.62614,698.19138 893.69805,697.4416 893.16261,696.90604 892.84135,696.19197 892.16312,695.19227 889.30745,691.55049 891.98464,694.83523 892.84135,696.08486 893.2697,697.19167 895.69702,699.04827 896.98207,699.29819 898.51699,698.94116 899.65926,699.04827 901.83671,699.79805 902.97898,700.72634 903.97846,701.51182 905.04934,702.79716 905.54908,703.54694 905.4063,704.33242 904.72808,705.26071 903.79999,706.51034 902.05089,708.29553 899.48078,710.58057 897.69599,712.33005 894.0907,714.50798 888.70062,717.39998 884.98825,719.18516 884.09585,720.14917 882.98928,721.14887 880.99031,722.46991 880.56196,724.50502 880.56196,728.21821 880.91892,731.28873 881.56144,733.39525 884.91686,737.39406 886.98722,739.17925 887.23709,739.6791 887.09431,740.17895 883.31054,741.46429 879.27691,740.96443 877.06376,740.78592 874.9934,741.10725 873.03012,741.10725 870.92407,740.78592 870.70989,740.42888 870.38863,739.96473 870.6385,733.57376 871.60229,727.14709 870.78128,725.11198 869.46053,723.18398 868.8537,722.64843 867.78283,721.68443 866.99752,721.14887 866.85473,720.4705 866.99752,719.86354 868.0327,718.75672 869.46053,717.5785 870.70989,716.6502 872.42329,716.6502 873.99391,716.72161 880.81183,712.50857 886.13052,709.33094 890.98516,706.76027 889.37884,707.0102 884.73838,705.76057 880.06221,705.51064 873.70835,704.54664 871.60229,704.93938 866.92613,704.40383 865.85525,704.22531 864.67728,703.83257 863.82058,703.29701 863.24945,702.65434 862.74971,701.51182 862.32136,699.94086 862.17857,698.51271 862.17857,696.62041 862.17857,695.01375 862.42844,693.33567 862.67831,691.80041 863.14236,690.62219 864.74868,686.08782 866.60486,680.83937 868.0327,677.23329 871.42381,671.09225 874.81492,666.30796 877.63489,662.77329 879.56247,660.27403 880.91892,658.20321 882.52523,656.27521 882.98928,653.52602 884.5599,649.81284 885.80925,646.49239 887.66544,641.06543 889.23606,634.60305 889.98567,629.06898 888.37936,625.99846 886.80874,624.39179 889.23606,626.17698 891.09225,628.89046 889.55732,622.71372 890.91377,625.67712 893.62666,629.49742 894.69753,629.92587 893.94792,626.67683 894.51905,627.06957 894.87601,624.32038 "
         style="color:#000000;fill:#fff5cb;fill-opacity:1;stroke:#000000;stroke-width:0.035cm;stroke-linecap:square;stroke-opacity:1"
         id="polygon38"
         transform="matrix(0.93749997,0,0,0.93749997,-745.18039,-344.26813)" />
      <polyline
         transform="matrix(0.93749997,0,0,0.93749997,-745.18039,-344.26813)"
         points="902.7142857142857,636.9177295918366 903.781268524007,636.3867984693877 904.7059869590989,636.1036352040816 905.4884410195613,635.8204719387754 906.306461173681,635.7142857142857 907.0177830468286,635.7142857142857 907.800237107291,635.8204719387754 908.0491997628926,636.1744260204081 908.4404267931238,636.9177295918366 908.831653823355,637.4840561224489 909.4362774155305,638.3335459183673 909.7919383521042,638.829081632653 910.3609958506223,639.3246173469387 911.2857142857142,639.6785714285713"
         style="color:#000000;fill:#ffffd2;fill-opacity:1;stroke:#000000;stroke-width:0.035cm;stroke-linecap:square;stroke-opacity:1"
         id="polyline42" />
      <polygon
         transform="matrix(0.93749997,0,0,0.93749997,-745.18039,-344.26813)"
         points="910.6475,642.94794 910.9295,642.13115 911,641.38539 910.82375,640.63963 910.61224,640.07143 910.11874,640.39104 909.51948,640.88822 908.92022,641.63398 908.60297,642.45077 908.35622,643.30307 908.28571,644.15537 908.28571,644.93664 908.42672,645.85997 908.60297,646.35714 909.09647,645.93099 909.44898,645.43382 909.97774,644.86562 910.25974,644.36844 910.50649,643.62268 "
         style="color:#000000;fill:#ffffd2;fill-opacity:1;stroke:#000000;stroke-width:0.035cm;stroke-linecap:square;stroke-opacity:1"
         id="polygon46" />
    </g>
  </g>
</svg>
