<?xml version="1.0" encoding="UTF-8" standalone="no"?>
<!-- Created with Inkscape (http://www.inkscape.org/) -->

<svg
   xmlns:dc="http://purl.org/dc/elements/1.1/"
   xmlns:cc="http://creativecommons.org/ns#"
   xmlns:rdf="http://www.w3.org/1999/02/22-rdf-syntax-ns#"
   xmlns:svg="http://www.w3.org/2000/svg"
   xmlns="http://www.w3.org/2000/svg"
   xmlns:sodipodi="http://sodipodi.sourceforge.net/DTD/sodipodi-0.dtd"
   xmlns:inkscape="http://www.inkscape.org/namespaces/inkscape"
   version="1.1"
   id="svg2"
   xml:space="preserve"
   width="247.11333"
   height="62.488533"
   viewBox="0 0 247.11333 62.488532"
   sodipodi:docname="mix-it-rgb.svg"
   inkscape:version="0.92.3 (2405546, 2018-03-11)"><metadata
     id="metadata8"><rdf:RDF><cc:Work
         rdf:about=""><dc:format>image/svg+xml</dc:format><dc:type
           rdf:resource="http://purl.org/dc/dcmitype/StillImage" /><dc:title></dc:title></cc:Work></rdf:RDF></metadata><defs
     id="defs6"><clipPath
       clipPathUnits="userSpaceOnUse"
       id="clipPath18"><path
         d="M 0,841.89 H 595.28 V 0 H 0 Z"
         id="path16"
         inkscape:connector-curvature="0" /></clipPath><clipPath
       clipPathUnits="userSpaceOnUse"
       id="clipPath38"><path
         d="m 281.929,450.033 h 28.704 v -40.054 h -28.704 z"
         id="path36"
         inkscape:connector-curvature="0" /></clipPath><clipPath
       clipPathUnits="userSpaceOnUse"
       id="clipPath54"><path
         d="m 312.846,430.844 h 8.945 v -1.676 h -8.945 z"
         id="path52"
         inkscape:connector-curvature="0" /></clipPath><clipPath
       clipPathUnits="userSpaceOnUse"
       id="clipPath68"><path
         d="m 326.083,448.652 h 51.361 v -38.273 h -51.361 z"
         id="path66"
         inkscape:connector-curvature="0" /></clipPath></defs><sodipodi:namedview
     pagecolor="#ffffff"
     bordercolor="#666666"
     borderopacity="1"
     objecttolerance="10"
     gridtolerance="10"
     guidetolerance="10"
     inkscape:pageopacity="0"
     inkscape:pageshadow="2"
     inkscape:window-width="1853"
     inkscape:window-height="1025"
     id="namedview4"
     showgrid="false"
     fit-margin-top="0"
     fit-margin-left="0"
     fit-margin-right="0"
     fit-margin-bottom="0"
     inkscape:zoom="1.189304"
     inkscape:cx="26.718708"
     inkscape:cy="189.54719"
     inkscape:window-x="67"
     inkscape:window-y="27"
     inkscape:window-maximized="1"
     inkscape:current-layer="g10" /><g
     id="g10"
     inkscape:groupmode="layer"
     inkscape:label="mix-it_RGB"
     transform="matrix(1.3333333,0,0,-1.3333333,-256.14533,609.12665)"><g
       id="g12"><g
         id="g14"
         clip-path="url(#clipPath18)"><g
           id="g20"
           transform="translate(252.1572,415.6816)"><path
             d="m 0,0 c 0,-7.604 12.3,-7.604 12.3,0 v 27.676 c 0,7.603 -12.3,7.603 -12.3,0 z"
             style="fill:#00adee;fill-opacity:1;fill-rule:nonzero;stroke:none"
             id="path22"
             inkscape:connector-curvature="0" /></g><g
           id="g24"
           transform="translate(244.999,438.4453)"><path
             d="m 0,0 c -0.392,2.74 -1.565,5.367 -3.69,7.492 -2.412,2.41 -5.555,3.654 -8.729,3.754 v 0.02 H -40.042 V 11.262 C -43.317,11.245 -46.589,9.99 -49.087,7.492 -51.212,5.367 -52.442,2.74 -52.777,0 -52.89,-0.504 -52.89,-1.063 -52.89,-1.621 v -20.742 c 0,-7.604 12.244,-7.604 12.244,0 v 21.33 h 8.108 v -21.731 c 0,-7.603 12.3,-7.603 12.3,0 v 21.731 h 8.05 v -21.33 c 0,-7.604 12.3,-7.604 12.3,0 V -1.621 C 0.112,-1.063 0.056,-0.504 0,0"
             style="fill:#00adee;fill-opacity:1;fill-rule:nonzero;stroke:none"
             id="path26"
             inkscape:connector-curvature="0" /></g><g
           id="g28"
           transform="translate(281.3691,448.2852)"><path
             d="m 0,0 c -5.423,5.535 -14.256,-3.354 -8.777,-8.889 l 9.337,-9.338 -9.337,-9.447 c -5.479,-5.48 3.354,-14.426 8.777,-8.89 l 18.227,18.337 z"
             style="fill:#00adee;fill-opacity:1;fill-rule:nonzero;stroke:none"
             id="path30"
             inkscape:connector-curvature="0" /></g><g
           id="g32"><g
             id="g34" /><g
             id="g46"><g
               clip-path="url(#clipPath38)"
               id="g44"
               style="opacity:0.5"><g
                 transform="translate(300.0986,448.2852)"
                 id="g42"><path
                   d="M 0,0 -18.17,-18.227 0,-36.564 c 5.479,-5.536 14.313,3.41 8.778,8.89 l -9.281,9.447 9.281,9.338 C 14.313,-3.354 5.479,5.535 0,0"
                   style="fill:#000000;fill-opacity:1;fill-rule:nonzero;stroke:none"
                   id="path40"
                   inkscape:connector-curvature="0" /></g></g></g></g><g
           id="g48"><g
             id="g50" /><g
             id="g60"><g
               clip-path="url(#clipPath54)"
               id="g58"
               style="opacity:0.5"><path
                 d="m 312.846,429.168 h 8.945 v 1.676 h -8.945 z"
                 style="fill:#000000;fill-opacity:1;fill-rule:nonzero;stroke:none"
                 id="path56"
                 inkscape:connector-curvature="0" /></g></g></g><g
           id="g62"><g
             id="g64" /><g
             id="g80"><g
               clip-path="url(#clipPath68)"
               id="g78"
               style="opacity:0.5"><g
                 transform="translate(326.083,413.2871)"
                 id="g72"><path
                   d="M 0,0 H 5.409 V 32.457 H 0 v 2.908 H 14.134 V 32.457 H 8.725 V 0 h 5.409 V -2.908 H 0 Z"
                   style="fill:#000000;fill-opacity:1;fill-rule:nonzero;stroke:none"
                   id="path70"
                   inkscape:connector-curvature="0" /></g><g
                 transform="translate(354.7598,413.2871)"
                 id="g76"><path
                   d="M 0,0 H 5.409 V 32.573 H -5.352 v -6.165 h -3.199 v 8.957 h 31.236 v -8.957 h -3.2 v 6.165 H 8.725 V 0 h 5.41 V -2.908 H 0 Z"
                   style="fill:#000000;fill-opacity:1;fill-rule:nonzero;stroke:none"
                   id="path74"
                   inkscape:connector-curvature="0" /></g></g></g></g><g
           id="g82"
           transform="translate(264.457,454.333)"><path
             d="m 0,0 c 0,-0.55 -0.45,-1 -1,-1 h -10.3 c -0.55,0 -1,0.45 -1,1 v 1.512 c 0,0.55 0.45,1 1,1 H -1 c 0.55,0 1,-0.45 1,-1 z"
             style="fill:#00adee;fill-opacity:1;fill-rule:nonzero;stroke:none"
             id="path84"
             inkscape:connector-curvature="0" /></g></g></g></g></svg>