<?xml version="1.0" encoding="UTF-8" standalone="no"?>
<!-- Created with Inkscape (http://www.inkscape.org/) -->

<svg
   xmlns:dc="http://purl.org/dc/elements/1.1/"
   xmlns:cc="http://creativecommons.org/ns#"
   xmlns:rdf="http://www.w3.org/1999/02/22-rdf-syntax-ns#"
   xmlns:svg="http://www.w3.org/2000/svg"
   xmlns="http://www.w3.org/2000/svg"
   xmlns:sodipodi="http://sodipodi.sourceforge.net/DTD/sodipodi-0.dtd"
   xmlns:inkscape="http://www.inkscape.org/namespaces/inkscape"
   width="37.594379mm"
   height="21.633392mm"
   id="svg2269"
   sodipodi:version="0.32"
   inkscape:version="0.92.3 (2405546, 2018-03-11)"
   sodipodi:docname="logo-full.svg"
   inkscape:output_extension="org.inkscape.output.svg.inkscape"
   version="1.1">
  <defs
     id="defs2271">
    <linearGradient
       y2="-12.9292"
       x2="43.221001"
       y1="95.244102"
       x1="38.543499"
       gradientUnits="userSpaceOnUse"
       id="SVGID_1_">
      <stop
         id="stop2489"
         style="stop-color:#43A9DB"
         offset="0" />
      <stop
         id="stop2491"
         style="stop-color:#2B4B97"
         offset="1" />
    </linearGradient>
  </defs>
  <sodipodi:namedview
     id="base"
     pagecolor="#ffffff"
     bordercolor="#666666"
     borderopacity="1.0"
     inkscape:pageopacity="0.0"
     inkscape:pageshadow="2"
     inkscape:zoom="1.6360264"
     inkscape:cx="-28.535208"
     inkscape:cy="-29.397099"
     inkscape:document-units="px"
     inkscape:current-layer="layer1"
     inkscape:window-width="1400"
     inkscape:window-height="990"
     inkscape:window-x="67"
     inkscape:window-y="27"
     showgrid="false"
     fit-margin-top="0"
     fit-margin-left="0"
     fit-margin-right="0"
     fit-margin-bottom="0"
     inkscape:window-maximized="0" />
  <metadata
     id="metadata2274">
    <rdf:RDF>
      <cc:Work
         rdf:about="">
        <dc:format>image/svg+xml</dc:format>
        <dc:type
           rdf:resource="http://purl.org/dc/dcmitype/StillImage" />
        <dc:title></dc:title>
      </cc:Work>
    </rdf:RDF>
  </metadata>
  <g
     inkscape:label="Calque 1"
     inkscape:groupmode="layer"
     id="layer1"
     transform="translate(-120.38407,-80.051612)">
    <circle
       transform="translate(120.37307,80.04061)"
       style="fill:url(#SVGID_1_)"
       id="circle2493"
       r="40.882"
       cy="40.893002"
       cx="40.893002" />
    <g
       transform="translate(120.37307,80.04061)"
       id="g2495">
      <path
         style="fill:#ffffff"
         id="path2497"
         d="M 25.183,36.753 C 24.965,36.328 24.673,35.977 24.308,35.7 23.942,35.423 23.522,35.221 23.047,35.092 22.572,34.964 22.068,34.9 21.534,34.9 c -0.415,0 -0.835,0.044 -1.261,0.133 -0.426,0.089 -0.815,0.237 -1.171,0.445 -0.356,0.208 -0.643,0.479 -0.86,0.815 -0.218,0.337 -0.326,0.752 -0.326,1.246 0,0.415 0.104,0.767 0.312,1.053 0.208,0.287 0.47,0.529 0.786,0.727 0.316,0.198 0.662,0.361 1.038,0.49 0.375,0.128 0.722,0.232 1.038,0.311 l 2.491,0.564 c 0.534,0.079 1.063,0.222 1.587,0.43 0.524,0.208 0.989,0.48 1.394,0.816 0.405,0.336 0.736,0.751 0.994,1.246 0.257,0.495 0.386,1.078 0.386,1.75 0,0.831 -0.188,1.538 -0.563,2.121 -0.376,0.583 -0.856,1.058 -1.439,1.424 -0.583,0.366 -1.241,0.627 -1.972,0.786 -0.732,0.158 -1.453,0.237 -2.165,0.237 -1.8,0 -3.258,-0.425 -4.375,-1.275 -1.117,-0.85 -1.755,-2.214 -1.913,-4.093 h 1.869 c 0.079,1.266 0.539,2.22 1.379,2.862 0.84,0.642 1.884,0.964 3.129,0.964 0.455,0 0.924,-0.049 1.409,-0.148 0.484,-0.099 0.935,-0.267 1.35,-0.504 0.416,-0.237 0.756,-0.538 1.023,-0.904 0.267,-0.366 0.4,-0.816 0.4,-1.35 0,-0.455 -0.094,-0.835 -0.282,-1.142 -0.188,-0.306 -0.44,-0.563 -0.756,-0.771 -0.316,-0.208 -0.678,-0.38 -1.083,-0.519 -0.406,-0.138 -0.816,-0.257 -1.231,-0.356 L 20.32,41.724 c -0.613,-0.158 -1.177,-0.341 -1.691,-0.549 -0.514,-0.208 -0.964,-0.464 -1.35,-0.771 -0.385,-0.306 -0.687,-0.682 -0.904,-1.127 -0.218,-0.445 -0.327,-0.994 -0.327,-1.646 0,-0.771 0.173,-1.434 0.519,-1.987 0.346,-0.553 0.796,-0.998 1.35,-1.334 0.554,-0.336 1.172,-0.583 1.854,-0.742 0.682,-0.158 1.359,-0.237 2.032,-0.237 0.771,0 1.487,0.099 2.15,0.297 0.662,0.198 1.246,0.504 1.75,0.919 0.504,0.415 0.904,0.93 1.201,1.542 0.296,0.613 0.464,1.335 0.504,2.166 H 25.539 C 25.519,37.677 25.4,37.178 25.183,36.753 Z"
         inkscape:connector-curvature="0" />
      <path
         style="fill:#ffffff"
         id="path2499"
         d="m 32.019,44.02 c 0.188,0.722 0.489,1.37 0.905,1.943 0.415,0.574 0.939,1.048 1.572,1.424 0.633,0.376 1.394,0.563 2.284,0.563 1.364,0 2.432,-0.356 3.203,-1.068 0.771,-0.712 1.305,-1.661 1.602,-2.847 h 1.869 c -0.396,1.74 -1.123,3.084 -2.18,4.034 -1.058,0.949 -2.556,1.423 -4.493,1.423 -1.207,0 -2.25,-0.212 -3.129,-0.638 -0.88,-0.425 -1.597,-1.008 -2.15,-1.75 -0.554,-0.742 -0.964,-1.602 -1.231,-2.581 -0.267,-0.979 -0.4,-2.012 -0.4,-3.1 0,-1.008 0.134,-1.997 0.4,-2.966 0.267,-0.969 0.677,-1.834 1.231,-2.595 0.553,-0.761 1.271,-1.374 2.15,-1.839 0.88,-0.464 1.923,-0.697 3.129,-0.697 1.226,0 2.273,0.248 3.144,0.742 0.871,0.494 1.577,1.142 2.121,1.942 0.543,0.801 0.934,1.721 1.171,2.759 0.237,1.038 0.336,2.091 0.296,3.159 H 31.737 c 0,0.673 0.094,1.37 0.282,2.092 z m 9.253,-5.71 C 41.044,37.658 40.723,37.079 40.308,36.575 39.893,36.071 39.389,35.665 38.795,35.359 38.202,35.053 37.529,34.9 36.778,34.9 c -0.771,0 -1.454,0.153 -2.047,0.459 -0.593,0.307 -1.097,0.712 -1.513,1.216 -0.415,0.504 -0.747,1.087 -0.994,1.75 -0.247,0.663 -0.411,1.34 -0.489,2.032 h 9.907 C 41.624,39.645 41.5,38.962 41.272,38.31 Z"
         inkscape:connector-curvature="0" />
      <path
         style="fill:#ffffff"
         id="path2501"
         d="m 46.478,33.772 3.915,13.11 h 0.059 l 3.737,-13.11 h 2.106 l 3.737,13.11 h 0.06 l 3.914,-13.11 h 1.988 L 61.07,49.077 H 59.023 L 55.256,36.204 h -0.06 L 51.459,49.077 H 49.412 L 44.489,33.772 Z"
         inkscape:connector-curvature="0" />
      <path
         style="fill:#ffffff"
         id="path2503"
         d="m 68.397,36.145 c 0.316,-0.653 0.746,-1.187 1.29,-1.602 0.544,-0.416 1.181,-0.722 1.913,-0.919 0.73,-0.198 1.542,-0.297 2.432,-0.297 0.672,0 1.345,0.064 2.018,0.193 0.672,0.129 1.275,0.371 1.809,0.727 0.534,0.356 0.969,0.855 1.305,1.498 0.336,0.643 0.505,1.478 0.505,2.506 v 8.126 c 0,0.752 0.366,1.127 1.097,1.127 0.219,0 0.416,-0.04 0.594,-0.119 v 1.572 c -0.218,0.04 -0.41,0.069 -0.578,0.089 -0.168,0.02 -0.381,0.03 -0.638,0.03 -0.475,0 -0.855,-0.064 -1.142,-0.193 -0.287,-0.128 -0.51,-0.312 -0.668,-0.549 -0.158,-0.237 -0.262,-0.519 -0.311,-0.845 -0.051,-0.326 -0.074,-0.687 -0.074,-1.083 h -0.061 c -0.336,0.495 -0.677,0.934 -1.022,1.32 -0.347,0.386 -0.731,0.708 -1.157,0.964 -0.426,0.257 -0.91,0.455 -1.453,0.593 -0.544,0.138 -1.191,0.208 -1.943,0.208 -0.711,0 -1.379,-0.084 -2.002,-0.252 -0.622,-0.167 -1.166,-0.435 -1.631,-0.801 -0.465,-0.366 -0.83,-0.831 -1.098,-1.394 -0.267,-0.563 -0.4,-1.231 -0.4,-2.002 0,-1.068 0.238,-1.903 0.713,-2.506 0.475,-0.603 1.102,-1.063 1.883,-1.379 0.781,-0.316 1.661,-0.538 2.64,-0.667 0.979,-0.128 1.973,-0.252 2.981,-0.371 0.395,-0.039 0.74,-0.089 1.037,-0.148 0.297,-0.06 0.544,-0.163 0.742,-0.312 0.197,-0.148 0.351,-0.351 0.459,-0.608 0.109,-0.257 0.164,-0.593 0.164,-1.009 0,-0.632 -0.104,-1.151 -0.313,-1.557 -0.207,-0.405 -0.494,-0.727 -0.859,-0.964 -0.366,-0.237 -0.791,-0.4 -1.275,-0.489 -0.484,-0.089 -1.004,-0.133 -1.557,-0.133 -1.188,0 -2.156,0.282 -2.907,0.845 -0.752,0.563 -1.147,1.468 -1.187,2.714 h -1.869 c 0.059,-0.89 0.247,-1.661 0.563,-2.313 z m 9.343,4.567 c -0.118,0.218 -0.347,0.376 -0.683,0.475 -0.336,0.099 -0.633,0.168 -0.89,0.208 -0.791,0.139 -1.606,0.263 -2.446,0.371 -0.842,0.109 -1.607,0.272 -2.299,0.489 -0.693,0.218 -1.261,0.529 -1.706,0.934 -0.444,0.406 -0.667,0.984 -0.667,1.735 0,0.475 0.094,0.895 0.281,1.26 0.188,0.366 0.439,0.683 0.757,0.949 0.315,0.267 0.683,0.47 1.097,0.608 0.416,0.138 0.841,0.208 1.275,0.208 0.713,0 1.395,-0.108 2.047,-0.326 0.652,-0.218 1.221,-0.534 1.705,-0.949 0.484,-0.416 0.871,-0.919 1.157,-1.513 0.286,-0.594 0.431,-1.265 0.431,-2.017 v -2.432 z"
         inkscape:connector-curvature="0" />
      <path
         id="path2505"
         d="m 91.649,33.743 v 2.817 h -3.084 v 7.593 c 0,0.711 0.119,1.186 0.355,1.423 0.238,0.237 0.713,0.356 1.424,0.356 0.238,0 0.465,-0.01 0.683,-0.03 0.218,-0.019 0.425,-0.049 0.622,-0.089 v 3.263 c -0.355,0.059 -0.751,0.099 -1.186,0.119 -0.436,0.02 -0.86,0.03 -1.275,0.03 -0.652,0 -1.271,-0.044 -1.854,-0.134 C 86.75,49.002 86.236,48.829 85.791,48.572 85.346,48.316 84.995,47.949 84.738,47.475 84.48,47 84.352,46.377 84.352,45.606 V 36.56 h -2.551 v -2.817 h 2.551 v -4.598 h 4.212 v 4.598 z"
         inkscape:connector-curvature="0" />
      <path
         id="path2507"
         d="m 98.174,45.399 c 0.633,0.613 1.543,0.919 2.729,0.919 0.85,0 1.581,-0.212 2.194,-0.638 0.613,-0.425 0.988,-0.875 1.127,-1.35 h 3.708 c -0.593,1.839 -1.503,3.154 -2.729,3.945 -1.226,0.791 -2.709,1.187 -4.448,1.187 -1.206,0 -2.294,-0.193 -3.263,-0.579 -0.969,-0.386 -1.789,-0.934 -2.462,-1.646 -0.673,-0.712 -1.191,-1.562 -1.558,-2.551 -0.365,-0.989 -0.548,-2.076 -0.548,-3.263 0,-1.146 0.188,-2.214 0.563,-3.203 0.375,-0.989 0.909,-1.844 1.602,-2.566 0.691,-0.721 1.518,-1.29 2.477,-1.705 0.959,-0.416 2.021,-0.623 3.188,-0.623 1.306,0 2.442,0.252 3.411,0.756 0.969,0.504 1.765,1.182 2.387,2.032 0.623,0.851 1.073,1.819 1.35,2.907 0.277,1.087 0.376,2.225 0.297,3.411 H 97.137 c 0.059,1.365 0.405,2.354 1.037,2.967 z m 4.762,-8.068 c -0.505,-0.553 -1.271,-0.83 -2.299,-0.83 -0.673,0 -1.231,0.114 -1.676,0.341 -0.445,0.228 -0.801,0.509 -1.068,0.845 -0.268,0.336 -0.455,0.692 -0.563,1.068 -0.108,0.376 -0.173,0.712 -0.192,1.008 h 6.852 c -0.199,-1.067 -0.55,-1.878 -1.054,-2.432 z"
         inkscape:connector-curvature="0" />
      <path
         id="path2509"
         d="m 118.017,36.501 c -0.673,0 -1.235,0.153 -1.69,0.459 -0.455,0.307 -0.826,0.702 -1.112,1.187 -0.287,0.485 -0.489,1.019 -0.608,1.602 -0.119,0.583 -0.178,1.162 -0.178,1.735 0,0.554 0.059,1.117 0.178,1.69 0.119,0.574 0.312,1.093 0.578,1.557 0.268,0.465 0.628,0.845 1.083,1.142 0.454,0.296 1.009,0.445 1.661,0.445 1.008,0 1.784,-0.282 2.328,-0.845 0.543,-0.563 0.885,-1.32 1.023,-2.269 h 4.063 c -0.277,2.037 -1.067,3.589 -2.373,4.657 -1.306,1.067 -2.976,1.602 -5.013,1.602 -1.146,0 -2.199,-0.193 -3.158,-0.579 -0.96,-0.386 -1.775,-0.924 -2.447,-1.616 -0.672,-0.692 -1.197,-1.518 -1.572,-2.477 -0.375,-0.959 -0.563,-2.012 -0.563,-3.159 0,-1.186 0.173,-2.288 0.519,-3.307 0.346,-1.018 0.855,-1.898 1.528,-2.64 0.672,-0.741 1.493,-1.32 2.462,-1.735 0.969,-0.416 2.076,-0.623 3.322,-0.623 0.908,0 1.783,0.119 2.624,0.356 0.841,0.237 1.592,0.598 2.255,1.083 0.662,0.485 1.201,1.088 1.615,1.81 0.416,0.722 0.653,1.577 0.713,2.565 h -4.123 c -0.278,-1.76 -1.316,-2.64 -3.115,-2.64 z"
         inkscape:connector-curvature="0" />
      <path
         id="path2511"
         d="m 131.927,27.899 v 7.979 h 0.089 c 0.533,-0.89 1.216,-1.537 2.047,-1.943 0.83,-0.405 1.641,-0.608 2.432,-0.608 1.127,0 2.051,0.153 2.773,0.46 0.722,0.307 1.29,0.731 1.705,1.275 0.416,0.544 0.707,1.206 0.875,1.987 0.168,0.782 0.252,1.646 0.252,2.596 v 9.432 h -4.211 v -8.661 c 0,-1.265 -0.198,-2.21 -0.594,-2.833 -0.396,-0.623 -1.098,-0.935 -2.105,-0.935 -1.147,0 -1.978,0.341 -2.492,1.023 -0.514,0.682 -0.771,1.805 -0.771,3.366 v 8.038 h -4.212 V 27.899 Z"
         inkscape:connector-curvature="0" />
    </g>
    <path
       style="opacity:0.68000028;fill:#ffffff"
       id="path2513"
       d="m 184.11107,152.15461 c -21.108,8.015 -44.718,-2.602 -52.731,-23.711 -5.705,-15.027 -1.963,-31.315 8.278,-42.347 -16.047,10.181 -23.287,30.553 -16.279,49.014 8.014,21.109 31.623,31.726 52.731,23.711 6.082,-2.309 11.287,-5.918 15.431,-10.383 -2.3,1.46 -4.783,2.711 -7.43,3.716 z"
       inkscape:connector-curvature="0" />
  </g>
</svg>
